<svg xmlns="http://www.w3.org/2000/svg" version="1.1" xmlns:xlink="http://www.w3.org/1999/xlink" xmlns:svgjs="http://svgjs.dev/svgjs" width="2000" height="2250" viewBox="0 0 2000 2250"><g transform="matrix(1,0,0,1,0.000015624999718966137,0)"><svg viewBox="0 0 320 360" data-background-color="#ffffff" preserveAspectRatio="xMidYMid meet" height="2250" width="2000" xmlns="http://www.w3.org/2000/svg" xmlns:xlink="http://www.w3.org/1999/xlink"><g id="tight-bounds" transform="matrix(1,0,0,1,0.0000025000000505315256,0)"><svg viewBox="0 0 320 360" height="360" width="320"><g><svg></svg></g><g><svg viewBox="0 0 320 360" height="360" width="320"><g><path transform="translate(-19.44751,3.1739) scale(3.53591,3.53591)" d="M67.6 10.7c0.2 0 1.8 0.8 2.7 1.1-0.3 0.1-1-0.2-1.8-0.5 0.2 0 0.6 0.1 1 0.3-0.2-0.2-1.7-0.7-1.9-0.9M52.7 7.6c0.3-0.1 3.8 0.4 5.4 0.5 0.1-0.1-0.2-0.1-0.6-0.2 0.5-0.1 1.5 0.2 2.2 0.3-2.1 0.1-4.4-0.5-6.4-0.3-0.7 0-0.2-0.2-0.6-0.3M49.8 7.6c1.8 0 3.2 0 0.6 0.2-0.3-0.1-0.7-0.1-0.6-0.2M78.1 15.9c0.2 0 1 0.9 1.4 1.2-0.1 0.1-0.9-0.7-1.3-1 0.1 0.1 0 0-0.1-0.2M76.1 14.6c-0.8-0.7-1.1-0.7-1.2-1.1 0.7 0.4 1.2 0.8 1.2 1.1M63.2 8.3c0.1-0.1 0.3 0.1 0.8 0.2-0.6-0.1-0.5 0-0.3 0.2-0.7-0.1-0.9-0.2-0.7-0.4 0.4 0.2 0.5 0.1 0.2 0M34.8 9.5c0-0.1 0.4-0.3 0.7-0.4-0.3 0.2-0.2 0.3 0.3 0.1 0 0.1-0.6 0.3-1 0.5 0.2-0.1 0.4-0.4 0-0.2M65.2 7.3c-0.3 0.1-1.4-0.5-2.5-0.7-0.6-0.2 2.4 0.5 2.5 0.7M6.2 56.7c0.6 2.5 0.2 2.4 0 0M6.3 41.7c0.1-0.4 0.2-1.5 0.3-1.4-0.3 2.4-0.8 3.5-0.9 5.3 0.3-1.6-0.1 0.9-0.2 1.5 0.1 0.8 0.1-0.5 0.3-0.3 0.2 0.3-0.4 4.5-0.2 2.2-0.2 2.1 0 4.4 0.4 5-0.5 3.2 2 10.4 2.5 11.9 0.1 0.1 0-0.5 0.2-0.1 0.2 1.3 1.1 2.2 1.4 3.6 0.3 0.4 1.5 2.6 1.7 3.1 0.4 0.8 0.6 0.7 1 1.5 1.2 2.3 3.1 4.5 4.9 6.6 5.8 6.8 14.7 12.4 24.6 14.4 9.9 2.1 20.3 0.6 28.4-3.3 0.5-0.3 0.4-0.4 1-0.6 2.8-0.9 6.2-3.8 8.1-4.9 0.9-1 3.3-2.7 3.6-3.7 1.7-1.4 3.4-3.7 4.3-5.2 0.5-0.8 0.9-0.8 1.1-1.3-0.1 0 1.6-2.1 2.1-3.3-0.2 0-0.5 0.6-0.5 0 3.6-6.9 5.6-16.2 4.5-22.6 0.2 7.9-1.8 16.7-5.6 22.3-1.7 3.6-5.2 7.5-8.4 10.3-0.5 0.5-1 1.1-1.6 1.5-1.9 1.6-4 2.9-6.2 4.1-5.2 2.9-11 5.4-17.8 5.5 11.7-1 22.2-6.9 28-14.1-4.4 4.3-6.3 6-11.2 8.5-0.4 0.7-3.7 2.1-5.9 2.7 1.3-0.6 4-1.6 4.9-2.4-7.3 3.5-15.4 5.5-23 4.4 2.9 0 7 0.1 10.9-0.6 0.6-0.2 0.9-0.4 1.6-0.5 7.6-1.7 14.9-5.4 20.1-10.6-3 2.7-7.5 5.9-10.4 6.9 2.7-1.5 7.6-4.4 9.2-6.6-3.2 3.2-9.2 6.4-13 7.8-0.6 0.1 0.4-0.4-0.6 0-1.2 0.3-0.7 0.3-1 0.5-4.6 1.3-9.9 2.4-14.3 2-0.8-0.1-1.1-0.3-1.8-0.3-0.8-0.1-1.5-0.1-2.4-0.1-3.5-0.4-7.3-1.8-10.1-3-1.5-0.7-3-1.2-4.5-2.1-1.2-0.7-2.2-1.5-3.2-2.3-3.8-2.8-7-5.6-10-9.6-5.4-7.5-8.2-16.9-7.8-26.2 0.4-9.3 4.1-18.4 10-25.1-0.3 0.3 0.4-0.7 1-1.3 0 0.2-0.1 0.5 0.6-0.2 0.6-0.7-0.2-0.2 0.1-0.6 6.2-6.8 17-12.3 28.1-12.5 0.4-0.3 1.1-0.7 1.9-0.5 0 0.1-0.5 0.1-0.5 0.1 1.1-0.1 2.1-0.1 2.6 0.1 0.1-0.1-0.4-0.2 0-0.2 0.7 0.2 0.9 0 1.3 0.2-0.3 0-0.6 0-0.8 0.1 2.5 0 4.1 0.6 6.6 0.8-1.3-0.3-1.6-0.3-2.6-0.6 1.1 0.2 1.6 0.4 2.1 0.3-0.2 0-0.1-0.3 0.1-0.2 2 0.5 2.2 0.7 4.3 1.4 0.2-0.2-0.9-0.3-1.2-0.6 2 0.7 3.8 1.2 5 2-0.4-0.3-1.6-0.7-2.5-1.1-0.1 0.1 0.3 0.2 0.4 0.4-1-0.5-2.4-1-3.8-1.2 1.2 0.3 2 0.7 2.5 0.9-1.1-0.2-2.5-0.9-4.1-1.2 2.6 0.8 7.5 2.6 10.5 4.2-1.1-0.7-2.4-1.2-3.1-1.6 0.6 0.1 1.3 0.5 1.3 0.3 0.7 0.3 1.6 1 2.1 1.1-0.9-0.6-2.7-1.5-3.3-1.8 7.5 3.4 14.2 9.1 18.5 16.4 0.4 0.7 1 2.3 1.5 2.5-0.1-0.5-0.5-0.8-0.9-1.6 0.2 0 0.2-0.3 0-0.6-0.4-0.5 0 0.4-0.4-0.1-1.8-3.3-4-6.2-7.4-9.4 1.9 1.8 0.5 0.5 0.1-0.1 2.6 2.3 5.6 6.2 6.9 8.2-0.2-0.3-0.3-0.5-0.2-0.5 2.4 4.1 3.9 7.8 5.4 13.1 0.1 0.1 0-0.4 0.2-0.1 1 4.2 1.3 7.7 1.2 10.9 0.8-5.4-1-13.8-4.2-20.4-0.4-0.8-0.4-0.2-0.8-1.1 0-0.3-0.3-0.9-0.5-1.3-4-6.6-8.9-11.3-14.7-15 0.4 0.2 1.2 0.8 1.2 0.7-10.8-7.1-23.3-8.1-33.6-5.9-0.7 0.3-1 0.6-1.8 1 1.5-0.5 2.4-0.6 3.8-0.9 0.3-0.3-1.3 0.1-0.6-0.2 0.1 0.1 1.4-0.2 1.7-0.1 0 0.1-0.4 0.2-0.5 0.3 3.3-0.7 6.7-0.8 9.6-0.6-1.7 0.1-4.8-0.2-5.8 0.3 1-0.1 2.4-0.2 3.3-0.1-1.2 0-3.4 0.1-4.4 0.2-0.1-0.1 1.6-0.3 0.5-0.3-0.5 0.1-1.3 0.1-1.6 0.4-8.6 0.8-17 5.3-22.9 10.6-1.2 1-2.6 2.1-3.5 3.2-2.2 2.5-3.6 5-5.2 7.2 1-2.1 3.2-5.3 5.8-8 2.6-2.7 5.4-5 6.9-6.2 0 0.4 2.4-1.5 3.3-2.1-0.6 0.5 0.4-0.2 0.6-0.1 3.2-1.9 5.8-2.6 8.7-3.7-0.7 0.2-1.3 0.4-1.4 0.3 0.7-0.2 1.1-0.4 1-0.5-2.8 0.8-7.2 2.7-10.7 4.8 6.3-4.3 14.3-6.9 22.2-7 7.9-0.2 15.6 1.8 21.7 5 4.1 1.8 8 5.1 11.1 8.3 0.9 0.8 0.2-0.2 1.5 1.2-0.4-0.2-0.7-0.4-0.2 0.2 0.8 0.9-0.2-0.7 1.1 0.9-0.1 0-0.5-0.5-0.5-0.3 3.5 3.1 6.2 8.7 7.8 12.4-0.4-1.5-1.4-3.6-2.2-5.1 2.4 4.4 3.2 7 4.2 10.9 0.4 0.3-0.2-1.4 0.2-0.6 0.1 0.6 0.2 2.5 0.6 2.8-0.3-1.9-0.8-4.2-1.2-4.6 0.3 0.2-0.5-2.3-1-2.9-0.2-1.6-1.6-4.4-2.8-6.5-4.3-8.4-12-15.3-20.6-19.1 0-0.2-0.5-0.4-0.7-0.6-8.5-3.6-18.7-4.6-28.5-2.3-9.9 2.4-19.2 8.1-25.8 16.3 0.3-1 2.8-2.9 2.9-3.7-2.9 3.1-6 7.2-8.1 11.6-2.2 4.4-3.4 8.9-3.9 12.2" fill="#ff0000" fill-rule="nonzero" stroke="none" stroke-width="1" stroke-linecap="butt" stroke-linejoin="miter" stroke-miterlimit="10" stroke-dasharray="" stroke-dashoffset="0" font-family="none" font-weight="none" font-size="none" text-anchor="none" style="mix-blend-mode: normal" data-fill-palette-color="tertiary"></path></g><g transform="matrix(1,0,0,1,105.15918464036396,90)"><svg viewBox="0 0 109.68163071927208 180" height="180" width="109.68163071927208"><g><svg viewBox="0 0 109.68163071927208 180" height="180" width="109.68163071927208"><g><svg viewBox="0 0 224 367.60941404307005" height="180" width="109.68163071927208"><g transform="matrix(1,0,0,1,0,275.7088066438431)"><svg viewBox="0 0 224 91.90060739922693" height="91.90060739922693" width="224"><g id="textblocktransform"><svg viewBox="0 0 224 91.90060739922693" height="91.90060739922693" width="224" id="textblock"><g><svg viewBox="0 0 224 91.90060739922693" height="91.90060739922693" width="224"><g transform="matrix(1,0,0,1,0,0)"><svg width="224" viewBox="3 -36.15 90.55 37.15" height="91.90060739922693" data-palette-color="#ff0000"><path d="M51.2-3.15L51.2-3.15Q51.1-2 50.23-1.1 49.35-0.2 47.85-0.1L47.85-0.1Q43.75 0.15 41.1 0.15 38.45 0.15 34.85-0.1L34.85-0.1Q32.1-0.35 31.95-2.5L31.95-2.5Q31.9-3.35 31.85-4.73 31.8-6.1 31.73-7.15 31.65-8.2 31.18-8.8 30.7-9.4 29.5-9.4L29.5-9.4 25.75-9.4Q24.55-9.4 24.08-8.8 23.6-8.2 23.53-7.15 23.45-6.1 23.4-4.73 23.35-3.35 23.3-2.5L23.3-2.5Q23.15-0.35 20.4-0.1L20.4-0.1Q16.8 0.15 13.83 0.15 10.85 0.15 6.75-0.1L6.75-0.1Q5.25-0.2 4.38-1.1 3.5-2 3.4-3.15L3.4-3.15Q3-7.55 3-17.3 3-27.05 3.2-29.98 3.4-32.9 4.1-33.98 4.8-35.05 6.9-35.05L6.9-35.05 19.1-35.05Q20.85-35.05 22.08-33.85 23.3-32.65 23.3-30.75L23.3-30.75 23.3-20.25Q23.3-18.45 24.85-18.45L24.85-18.45 30.4-18.45Q31.95-18.45 31.95-20.25L31.95-20.25 31.95-30.75Q31.95-32.65 33.18-33.85 34.4-35.05 36.15-35.05L36.15-35.05 47.7-35.05Q49.8-35.05 50.5-33.98 51.2-32.9 51.4-29.98 51.6-27.05 51.6-17.3 51.6-7.55 51.2-3.15ZM73.1 1Q68.8 1 65.07 0.05 61.35-0.9 59.82-1.85 58.3-2.8 57.8-3.2L57.8-3.2Q56.5-4.25 56.5-6.1L56.5-6.1Q56.5-7.55 56.85-8.85L56.85-8.85Q57.5-11.3 59.2-11.3L59.2-11.3Q59.75-11.25 62.72-10.15 65.7-9.05 67.4-9.05L67.4-9.05Q69.95-9.05 69.95-11.05L69.95-11.05Q69.95-12.25 68.7-13.28 67.45-14.3 65.67-15.25 63.9-16.2 62.1-17.43 60.3-18.65 59.05-20.83 57.8-23 57.8-25.9L57.8-25.9Q57.8-30.7 62.5-33.43 67.2-36.15 74.65-36.15 82.1-36.15 86.47-34.63 90.85-33.1 90.85-30.4L90.85-30.4Q90.85-28.45 89.95-26.98 89.05-25.5 88.05-25.5L88.05-25.5Q87.7-25.5 85.72-26.28 83.75-27.05 82.15-27.05L82.15-27.05Q79-27.05 79-24.6L79-24.6Q79-23.4 80.5-22.4 82-21.4 84.12-20.48 86.25-19.55 88.4-18.4 90.55-17.25 92.05-15.25 93.55-13.25 93.55-10.4 93.55-7.55 91.72-5.2 89.9-2.85 86.9-1.55L86.9-1.55Q80.95 1 73.1 1L73.1 1Z" opacity="1" transform="matrix(1,0,0,1,0,0)" fill="#ff0000" class="wordmark-text-0" data-fill-palette-color="primary" id="text-0"></path></svg></g></svg></g></svg></g></svg></g><g transform="matrix(1,0,0,1,4.129078304021306,0)"><svg viewBox="0 0 215.7418433919574 254.0132788514632" height="254.0132788514632" width="215.7418433919574"><g><svg xmlns="http://www.w3.org/2000/svg" xmlns:xlink="http://www.w3.org/1999/xlink" version="1.1" x="0" y="0" viewBox="25.681166339770964 21.366343333780797 48.63930685738903 57.2676566662192" style="enable-background:new 0 0 100 100;" xml:space="preserve" height="254.0132788514632" width="215.7418433919574" class="icon-icon-0" data-fill-palette-color="accent" id="icon-0"><path d="M74.31 77.938c-0.065 0.406-0.416 0.696-0.815 0.696-0.043 0-0.087-0.003-0.132-0.01-4.919-0.788-9.506-4.407-12.153-9.531-4.373 2.435-10.098 3.005-17.462 1.745l-0.756-0.128c-4.711-0.796-11.83-2-15.228-5.741-2.212-2.435-1.972-4.788-1.717-7.279 0.04-0.396 0.082-0.801 0.115-1.218 0.05-0.633-0.076-1.264-0.208-1.932-0.117-0.587-0.237-1.194-0.265-1.881-0.128-3.106 1.335-5.662 2.749-8.134l0.157-0.274c1.957-3.428 2.696-7.075 3.478-10.936l0.22-1.08c0.598-2.913 2.548-5.269 5.961-7.201 3.286-1.86 11.66-5.8 18.427-2.209 2.615 1.388 4.057 4.12 3.857 7.309-0.187 2.986-1.798 5.633-3.918 6.437-0.78 0.296-2.186 0.543-3.843-0.461-0.142 0.36-0.372 0.68-0.687 0.946-1.137 0.961-3.219 1.042-4.843 0.187-0.988-0.52-1.645-1.303-1.909-2.239-1.539 1.058-2.757 3.232-2.898 4.842-0.142 1.614 0.617 3.028 1.421 4.524 0.667 1.243 1.392 2.593 1.526 4.102 2.413-1.741 6.035-2.696 9.542-2.373 2.945 0.271 5.219 1.399 6.544 3.218 2.254-2.488 5.929-3.918 10.09-3.89 0.456 0.004 0.824 0.377 0.82 0.833-0.004 0.454-0.373 0.82-0.826 0.82-0.039 0-0.079 0-0.119 0-3.18 0-7.279 1.09-9.382 4.161-0.168 0.245-0.456 0.381-0.752 0.357-0.297-0.026-0.557-0.208-0.681-0.479-1.183-2.576-4.169-3.219-5.844-3.373-3.974-0.365-8.225 1.141-9.89 3.505-0.243 0.344-0.705 0.45-1.074 0.248-0.369-0.203-0.526-0.651-0.365-1.04 0.785-1.899-0.062-3.478-1.043-5.306-0.842-1.568-1.796-3.345-1.611-5.451 0.219-2.495 2.326-5.885 4.999-6.76 0.266-0.086 0.557-0.034 0.775 0.141 0.218 0.175 0.333 0.448 0.305 0.727-0.108 1.075 0.563 1.665 1.145 1.972 0.992 0.522 2.397 0.528 3.006 0.013 0.035-0.029 0.07-0.069 0.104-0.109-0.015-0.033-0.032-0.062-0.043-0.1l-0.014-0.049 0.016-0.048c0.002-0.008 0.071-0.241-0.1-0.554-0.184-0.337-0.676-0.815-1.978-1.176-0.731-0.203-0.791-0.588-0.763-0.8 0.078-0.573 1.015-1.134 1.784-1.011 1.03 0.165 2.424 0.884 2.882 2.216 0.815 0.708 1.933 1.314 3.122 0.863 1.508-0.572 2.709-2.673 2.854-4.995 0.076-1.211-0.063-4.196-2.982-5.745-2.014-1.068-7.686-2.995-16.838 2.187-2.973 1.683-4.659 3.676-5.156 6.094l-0.219 1.075c-0.809 3.995-1.573 7.768-3.662 11.427l-0.157 0.276c-1.358 2.373-2.64 4.615-2.532 7.245 0.023 0.559 0.126 1.078 0.235 1.627 0.149 0.748 0.302 1.522 0.235 2.383-0.034 0.43-0.076 0.849-0.118 1.257-0.244 2.386-0.42 4.11 1.297 5.999 3.013 3.317 9.793 4.464 14.28 5.222l0.759 0.129c7.394 1.264 12.985 0.616 17.089-1.982 0.201-0.128 0.447-0.161 0.676-0.094 0.228 0.067 0.417 0.23 0.516 0.446 2.339 5.063 6.675 8.67 11.315 9.413C74.075 77.063 74.382 77.487 74.31 77.938zM59.56 60.251c-0.802 0.802-5.291 2.681-10.353 2.681-4.843 0-11.646-3.211-11.714-3.244-0.412-0.196-0.906-0.022-1.102 0.391-0.196 0.412-0.021 0.905 0.391 1.101 0.292 0.139 7.206 3.404 12.425 3.404 5.102 0 10.232-1.874 11.522-3.165 0.323-0.323 0.323-0.846 0-1.169C60.406 59.928 59.882 59.928 59.56 60.251z" fill="#ed2647" data-fill-palette-color="accent"></path></svg></g></svg></g><g></g></svg></g></svg></g></svg></g></svg></g><defs></defs></svg><rect width="320" height="360" fill="none" stroke="none" visibility="hidden"></rect></g></svg></g></svg>